<svg xmlns="http://www.w3.org/2000/svg" viewBox="0 0 85.8 85.8"  xmlns:v="https://vecta.io/nano"><linearGradient id="A" gradientUnits="userSpaceOnUse" x1="21.445" y1="80.055" x2="64.35" y2="5.741"><stop offset="0" stop-color="#9e11d0"/><stop offset=".5" stop-color="#ff3766"/><stop offset="1" stop-color="#ffab02"/></linearGradient><circle cx="42.9" cy="42.9" r="42.9" fill="url(#A)"/><path d="M70.2 31.2V36c0 1.2-.9 2.1-2.1 2.1S66 37.2 66 36v-4.9c0-4.7-3.8-8.5-8.5-8.4-4.6 0-8.3 3.9-8.3 8.5v4.1h5.6a4.23 4.23 0 0 1 4.2 4.2v19.7a4.23 4.23 0 0 1-4.2 4.2h-31a4.23 4.23 0 0 1-4.2-4.2V39.5a4.23 4.23 0 0 1 4.2-4.2h21.1v-4.2c0-7 5.7-12.7 12.7-12.6 7 0 12.6 5.7 12.6 12.7zm-46.4 8.3v19.7h30.9V39.5H23.8z" fill="#fff"/></svg>